Coordinates
version=1
nRows=26
nColumns=22
inDegrees=yes

Units are S.I. units (second, meters, Newtons, ...)
If the header above contains a line with 'inDegrees', this indicates whether rotational values are in degrees (yes) or radians (no).

endheader
time	pelvis_tilt	pelvis_list	pelvis_rotation	pelvis_tx	pelvis_ty	pelvis_tz	hip_flexion_r	hip_adduction_r	hip_rotation_r	knee_angle_r	ankle_angle_r	subtalar_angle_r	hip_flexion_l	hip_adduction_l	hip_rotation_l	knee_angle_l	ankle_angle_l	subtalar_angle_l	lumbar_extension	lumbar_bending	lumbar_rotation
      2.72000000	      2.84750899	      4.57727014	    -22.89742587	     -0.24694516	      1.06045889	     -0.52092870	      1.48194173	     -2.71569478	      6.85996184	    -47.36586793	     -0.04090750	      9.47962651	     16.04192315	      3.16605018	      4.19259266	    -19.92826083	      5.74146166	      4.50137573	     -4.41749012	     -7.69127835	     -1.80526241
      2.73000000	      3.08297535	      4.90082150	    -23.61504607	     -0.23800658	      1.06133574	     -0.51919833	      2.95209042	     -3.25640931	      6.87087106	    -49.86265038	     -2.01742702	      9.86636644	     15.26390908	      3.51300478	      3.30274933	    -19.65664389	      6.17047677	      4.32183457	     -4.48199909	     -8.07175459	     -1.95102903
      2.74000000	      3.32397029	      5.21032241	    -24.30212209	     -0.22921735	      1.06220028	     -0.51749590	      4.42348630	     -3.79466947	      6.83302213	    -52.18151178	     -3.50157630	     10.08128257	     14.45032778	      3.87575217	      2.47075543	    -19.30496256	      6.57383761	      4.15044199	     -4.56950850	     -8.43013133	     -2.13681333
      2.75000000	      3.58281850	      5.49338329	    -24.96260130	     -0.22056986	      1.06308063	     -0.51585408	      5.86266677	     -4.32885690	      6.75139568	    -54.29622448	     -4.37591900	     10.08336872	     13.60783392	      4.25366956	      1.70936779	    -18.91936553	      6.94909513	      3.98470920	     -4.69745955	     -8.75174442	     -2.34086825
      2.76000000	      3.80109953	      5.73892634	    -25.57446709	     -0.21203944	      1.06393117	     -0.51423878	      7.29334688	     -4.81213417	      6.61851357	    -56.17040317	     -4.59972355	      9.74750800	     12.80429584	      4.60429594	      0.97938374	    -18.53130685	      7.29932303	      3.71769281	     -4.80324061	     -9.00304042	     -2.60434189
      2.77000000	      4.05490367	      5.91399989	    -26.13637018	     -0.20358517	      1.06493308	     -0.51263858	      8.60257244	     -5.24934900	      6.42433385	    -57.76869185	     -4.28650651	      9.11207714	     11.92382241	      4.94125215	      0.38480845	    -18.10263835	      7.60487019	      3.50574516	     -4.98232403	     -9.18779059	     -2.89703009
      2.78000000	      4.29064156	      6.00906714	    -26.63122414	     -0.19521078	      1.06601279	     -0.51104438	      9.82118675	     -5.60405792	      6.14977845	    -59.08114559	     -3.47500633	      8.19209822	     11.03298478	      5.22533463	     -0.09567432	    -17.67542665	      7.89756030	      3.28159214	     -5.18577591	     -9.27597046	     -3.22650174
      2.79000000	      4.50546022	      6.02393074	    -27.06524822	     -0.18694823	      1.06717787	     -0.50943244	     10.94928761	     -5.86856027	      5.80381673	    -60.10923620	     -2.34012475	      7.13956509	     10.13685029	      5.44677051	     -0.47567912	    -17.25707247	      8.13881488	      3.07646374	     -5.41629046	     -9.27238155	     -3.57681675
      2.80000000	      4.70244653	      5.97542364	    -27.44741326	     -0.17880550	      1.06839818	     -0.50778095	     11.99346445	     -6.05601078	      5.39553553	    -60.86638547	     -1.05695794	      6.02634442	      9.23915142	      5.61543402	     -0.77989262	    -16.84999709	      8.36224600	      2.88624596	     -5.66883175	     -9.20067540	     -3.94380901
      2.81000000	      4.87525548	      5.86133673	    -27.78640524	     -0.17079723	      1.06964795	     -0.50607301	     12.95461619	     -6.15839105	      4.92655080	    -61.35577940	      0.25361704	      4.91112315	      8.34731382	      5.71958906	     -1.02880272	    -16.46271639	      8.59000755	      2.70910138	     -5.94267290	     -9.05939909	     -4.30939451
      2.82000000	      5.02337348	      5.69664647	    -28.09812416	     -0.16293591	      1.07088449	     -0.50426069	     13.84333795	     -6.17309110	      4.43154516	    -61.59837687	      1.47345548	      3.84333859	      7.46335925	      5.76475825	     -1.24947425	    -16.08637731	      8.82119772	      2.54748900	     -6.22527657	     -8.86909782	     -4.66948872
      2.83000000	      5.14487863	      5.49550583	    -28.39848852	     -0.15523024	      1.07206600	     -0.50234192	     14.67364440	     -6.10708726	      3.93426589	    -61.61056279	      2.54384552	      2.87704270	      6.59891133	      5.75978168	     -1.46850748	    -15.72597585	      9.06776945	      2.40158143	     -6.51072468	     -8.64207365	     -5.01544970
      2.84000000	      5.22960479	      5.26269890	    -28.69747495	     -0.14767579	      1.07315284	     -0.50026244	     15.45841650	     -5.95165804	      3.44602166	    -61.40831197	      3.44881003	      2.00150588	      5.75918843	      5.70034664	     -1.68581155	    -15.37275909	      9.31263489	      2.26766154	     -6.78049496	     -8.38629593	     -5.32443777
      2.85000000	      5.28169097	      5.02813241	    -29.00141339	     -0.14026405	      1.07409865	     -0.49805325	     16.21780568	     -5.74800002	      2.96627478	    -61.01370141	      4.21656784	      1.24890402	      4.95552279	      5.61882508	     -1.90180557	    -15.02509892	      9.54982988	      2.14790974	     -7.02405309	     -8.12944826	     -5.59371871
      2.86000000	      5.30009192	      4.78825313	    -29.31228568	     -0.13302117	      1.07486296	     -0.49571508	     16.95779165	     -5.49012296	      2.50484787	    -60.44827949	      4.88201007	      0.69592679	      4.21192922	      5.50545848	     -2.15859038	    -14.72818816	      9.84388203	      2.03426899	     -7.24702487	     -7.86397820	     -5.87211687
      2.87000000	      5.29103791	      4.56969533	    -29.62609893	     -0.12590768	      1.07543721	     -0.49327325	     17.68747335	     -5.22719294	      2.03424543	    -59.72405278	      5.50117771	      0.25170868	      3.51494355	      5.39591477	     -2.40093311	    -14.44306492	     10.12719588	      1.92866188	     -7.43986007	     -7.61972418	     -6.12649461
      2.88000000	      5.24919851	      4.36748317	    -29.93248899	     -0.11890355	      1.07580527	     -0.49075878	     18.40755167	     -4.96959520	      1.52270259	    -58.84778565	      6.09635316	     -0.02399967	      2.89215986	      5.27893303	     -2.67049543	    -14.21851762	     10.45373875	      1.82606496	     -7.59916729	     -7.38199227	     -6.36824780
      2.89000000	      5.19986151	      4.17845429	    -30.24002508	     -0.11200508	      1.07601389	     -0.48815543	     19.09503162	     -4.72328606	      0.98507150	    -57.83426782	      6.70336393	     -0.26547726	      2.28796660	      5.17105025	     -2.90616500	    -13.99793462	     10.76894423	      1.71714232	     -7.75396105	     -7.15821890	     -6.63295681
      2.90000000	      5.12506909	      4.01976168	    -30.53111701	     -0.10514469	      1.07602245	     -0.48552314	     19.77484218	     -4.53106157	      0.35732144	    -56.69393065	      7.32055765	     -0.36950913	      1.76045337	      5.07536983	     -3.16182035	    -13.84646208	     11.12932398	      1.61064784	     -7.86922206	     -6.94891249	     -6.88380949
      2.91000000	      5.04845257	      3.86928814	    -30.80628016	     -0.09830338	      1.07591887	     -0.48282285	     20.39865603	     -4.37257611	     -0.34391875	    -55.41778125	      7.94806948	     -0.45684174	      1.24352553	      4.98813317	     -3.38320996	    -13.70684941	     11.48117546	      1.49042299	     -7.97984219	     -6.74315777	     -7.16224498
      2.92000000	      4.96994254	      3.73368519	    -31.06330029	     -0.09144730	      1.07570213	     -0.48006365	     20.97244728	     -4.26764917	     -1.14621479	    -54.02327627	      8.56387408	     -0.51500585	      0.74863711	      4.91483270	     -3.58654549	    -13.59700844	     11.84397120	      1.35959678	     -8.07529491	     -6.54600152	     -7.45090970
      2.93000000	      4.89844143	      3.60305008	    -31.29575361	     -0.08456090	      1.07541620	     -0.47724456	     21.47513325	     -4.21030787	     -2.05502553	    -52.51247638	      9.15086785	     -0.57275228	      0.25493332	      4.85169267	     -3.76175150	    -13.50299856	     12.19739613	      1.21515239	     -8.17171502	     -6.35030640	     -7.74505890
      2.94000000	      4.83446983	      3.47705938	    -31.51031379	     -0.07763021	      1.07506885	     -0.47432570	     21.90398080	     -4.19317352	     -3.06396414	    -50.89533655	      9.69058552	     -0.63573871	     -0.23891376	      4.79666294	     -3.91492412	    -13.42828359	     12.55416680	      1.06512206	     -8.26146063	     -6.15963054	     -8.04606179
      2.95000000	      4.80466437	      3.33145116	    -31.70084887	     -0.07064582	      1.07473758	     -0.47130465	     22.21254883	     -4.21235677	     -4.19819681	    -49.16872592	     10.15192065	     -0.75524172	     -0.77702187	      4.74183887	     -4.03818849	    -13.35958944	     12.87373191	      0.90227865	     -8.38869080	     -5.96527972	     -8.31653265
      2.96000000	      4.78889094	      3.18621958	    -31.88372948	     -0.06363084	      1.07436810	     -0.46813924	     22.43620693	     -4.24495993	     -5.40042565	    -47.34818958	     10.53835801	     -0.91200457	     -1.33395579	      4.69236457	     -4.16225345	    -13.28814649	     13.20260748	      0.75229550	     -8.51610794	     -5.77745331	     -8.60269517
      2.97000000	      4.72145996	      3.05777521	    -32.03262416	     -0.05661038	      1.07385863	     -0.46487678	     22.64971679	     -4.27708449	     -6.70551254	    -45.44856264	     10.79520235	     -1.02048536	     -1.81587319	      4.62273342	     -4.25090335	    -13.26044982	     13.60486136	      0.63556503	     -8.57510611	     -5.57433893	     -8.87694567
